<?xml version="1.0" encoding="UTF-8"?>
<svg id="_レイヤー_2" data-name="レイヤー 2" xmlns="http://www.w3.org/2000/svg" viewBox="0 0 278 204.35">
  <defs>
    <style>
      .cls-1 {
        font-family: KozGoPr6N-Regular-83pv-RKSJ-H, 'Kozuka Gothic Pr6N';
        font-size: 25px;
      }

      .cls-2 {
        stroke: #9e9e9e;
      }

      .cls-2, .cls-3 {
        fill: none;
      }

      .cls-2, .cls-3, .cls-4, .cls-5 {
        stroke-miterlimit: 10;
      }

      .cls-2, .cls-4, .cls-5 {
        stroke-width: 12px;
      }

      .cls-3 {
        stroke-width: 6px;
      }

      .cls-3, .cls-4, .cls-5 {
        stroke: #000;
      }

      .cls-5 {
        fill: #fff;
      }
    </style>
  </defs>
  <g id="_レイヤー_1-2" data-name="レイヤー 1">
    <rect class="cls-2" x="34.61" y="6" width="206.75" height="159"/>
    <line class="cls-3" x1="34.61" y1="81.84" x2="241.36" y2="81.84"/>
    <line class="cls-5" x1="141.67" y1="6" x2="142.25" y2="165"/>
    <text class="cls-1" transform="translate(136.95 195.87)"><tspan x="0" y="0">x</tspan></text>
    <text/>
    <text class="cls-1" transform="translate(9.31 90.48)"><tspan x="0" y="0">y</tspan></text>
    <path class="cls-4" d="m270.83,36.79l-12.77-12.77c-1.56-1.56-4.09-1.56-5.66,0h0s-35.22,35.23-35.22,35.23c-.75.75-1.17,1.77-1.17,2.83v12.77c0,2.21,1.79,4,4,4h12.77c1.06,0,2.08-.42,2.83-1.17l35.22-35.23c1.56-1.56,1.56-4.09,0-5.66,0,0,0,0,0,0Zm-37.65,38.46c-.11.11-.25.17-.4.17h-12.77c-.32,0-.57-.26-.57-.57v-12.77c0-.15.06-.3.17-.4l25.54-25.54,13.57,13.57-25.54,25.54Zm35.22-35.22l-7.26,7.26-13.57-13.57,7.26-7.26c.22-.22.58-.22.81,0,0,0,0,0,0,0l12.76,12.77c.22.22.22.58,0,.81,0,0,0,0,0,0Z"/>
  </g>
</svg>