<?xml version="1.0" encoding="UTF-8"?>
<svg id="_レイヤー_2" data-name="レイヤー 2" xmlns="http://www.w3.org/2000/svg" viewBox="0 0 249.62 217.95">
  <defs>
    <style>
      .cls-1 {
        fill: none;
      }

      .cls-1, .cls-2 {
        stroke: #000;
        stroke-miterlimit: 10;
        stroke-width: 12px;
      }

      .cls-3 {
        stroke-width: 0px;
      }
    </style>
  </defs>
  <g id="_レイヤー_1-2" data-name="レイヤー 1">
    <path class="cls-2" d="m10.43,114.78c75.85-1.13,151.7-2.27,227.55-3.4"/>
    <path class="cls-2" d="m114.4,9.79l1.94,198.74"/>
    <path class="cls-3" d="m225.67,97.66c0,9.89.53,19.65.9,27.47,7.77-4.73,15.29-10.32,23.06-15.05"/>
    <path class="cls-3" d="m114.49,0c-5.41,7.28-11.56,15.31-16.97,22.59,15.7,0,21.93.28,33.78-.22"/>
    <text/>
    <path class="cls-1" d="m216.91,18.84c-24.74,20.44-47.04,43.83-66.27,69.53-8.39,11.21-16.83,27.35-7.86,43.15,19.44,34.25,53.35,58.37,86.7,79.32"/>
    <path class="cls-1" d="m15.77,213.32c24.74-20.44,47.04-43.83,66.27-69.53,8.39-11.21,16.83-27.35,7.86-43.15C70.46,66.39,36.54,42.27,3.19,21.33"/>
  </g>
</svg>