<?xml version="1.0" encoding="UTF-8"?>
<svg id="_レイヤー_2" data-name="レイヤー 2" xmlns="http://www.w3.org/2000/svg" viewBox="0 0 243.49 214.86">
  <defs>
    <style>
      .cls-1, .cls-2 {
        stroke: #000;
        stroke-miterlimit: 10;
        stroke-width: 4px;
      }

      .cls-2 {
        fill: none;
      }

      .cls-3 {
        stroke-width: 0px;
      }
    </style>
  </defs>
  <g id="_レイヤー_1-2" data-name="レイヤー 1">
    <path class="cls-1" d="m8.3,114.78c75.85-1.13,151.7-2.27,227.55-3.4"/>
    <path class="cls-1" d="m112.28,9.79l1.94,198.74"/>
    <path class="cls-3" d="m219.54,100.66c0,9.89.53,19.65.9,27.47,7.77-4.73,15.29-10.32,23.06-15.05"/>
    <path class="cls-3" d="m112.36,0c-5.41,7.28-11.56,15.31-16.97,22.59,15.7,0,21.93.28,33.78-.22"/>
    <path class="cls-2" d="m214.78,18.84c-24.74,20.44-47.04,43.83-66.27,69.53-8.39,11.21-16.83,27.35-7.86,43.15,19.44,34.25,53.35,58.37,86.7,79.32"/>
    <path class="cls-2" d="m13.64,213.32c24.74-20.44,47.04-43.83,66.27-69.53,8.39-11.21,16.83-27.35,7.86-43.15C68.33,66.39,34.41,42.27,1.06,21.33"/>
  </g>
</svg>