<?xml version="1.0" encoding="UTF-8"?>
<svg id="_レイヤー_2" data-name="レイヤー 2" xmlns="http://www.w3.org/2000/svg" viewBox="0 0 256.24 215.14">
  <defs>
    <style>
      .cls-1 {
        stroke-width: 14px;
      }

      .cls-1, .cls-2, .cls-3, .cls-4 {
        stroke-miterlimit: 10;
      }

      .cls-1, .cls-2, .cls-4 {
        stroke: #fff;
      }

      .cls-2 {
        stroke-width: 12px;
      }

      .cls-3 {
        stroke: #000;
      }

      .cls-3, .cls-4 {
        fill: #fff;
      }
    </style>
  </defs>
  <g id="_レイヤー_1-2" data-name="レイヤー 1">
    <path class="cls-2" d="m117.82,10.08c.65,66.25,1.29,132.49,1.94,198.74"/>
    <path class="cls-4" d="m117.9.3c-5.41,7.28-11.56,15.31-16.97,22.59,15.7,0,21.93.28,33.78-.22"/>
    <path class="cls-1" d="m222.08,104.64c-7.28-5.41-15.31-11.56-22.59-16.97,0,15.7-.28,21.93.22,33.78"/>
    <path class="cls-2" d="m227.25,17.7c-24.74,20.44-47.04,43.83-66.27,69.53-8.39,11.21-16.83,27.35-7.86,43.15,19.44,34.25,53.35,58.37,86.7,79.32"/>
    <path class="cls-3" d="m232.03,97.94c0,9.89.53,19.65.9,27.47,7.77-4.73,15.29-10.32,23.06-15.05"/>
    <path class="cls-2" d="m11.37,210.43c25.21-19.85,48.06-42.72,67.88-67.95,8.65-11.01,17.47-26.95,8.87-42.96C69.5,64.82,36.16,39.91,3.31,18.19"/>
    <path class="cls-1" d="m236.43,110.71c-72.33.65-144.67,1.29-217,1.94"/>
  </g>
</svg>