<?xml version="1.0" encoding="UTF-8"?>
<svg id="_レイヤー_2" data-name="レイヤー 2" xmlns="http://www.w3.org/2000/svg" viewBox="0 0 182.56 189.43">
  <defs>
    <style>
      .cls-1 {
        fill: none;
        stroke: #000;
        stroke-miterlimit: 10;
        stroke-width: 3px;
      }

      .cls-2 {
        stroke-width: 0px;
      }
    </style>
  </defs>
  <g id="_レイヤー_1-2" data-name="レイヤー 1">
    <text/>
    <path class="cls-2" d="m50.77,12.53L39.29,1.05c-1.4-1.4-3.68-1.4-5.08,0h0S2.55,32.71,2.55,32.71c-.68.67-1.05,1.59-1.05,2.54v11.47c0,1.99,1.61,3.59,3.59,3.59h11.47c.95,0,1.87-.38,2.54-1.05l31.66-31.66c1.4-1.4,1.4-3.68,0-5.08,0,0,0,0,0,0ZM16.93,47.09c-.1.1-.23.15-.36.15H5.09c-.28,0-.51-.23-.51-.51v-11.47c0-.14.06-.27.15-.36L27.69,11.94l12.2,12.2-22.95,22.95Zm31.66-31.66l-6.52,6.52-12.2-12.2,6.52-6.53c.2-.2.53-.2.73,0,0,0,0,0,0,0l11.47,11.47c.2.2.2.53,0,.73,0,0,0,0,0,0Z"/>
    <rect class="cls-1" x="35.47" y="47.72" width="145.6" height="140.2"/>
    <line class="cls-1" x1="1.5" y1="47.72" x2="1.5" y2="187.93"/>
  </g>
</svg>