<?xml version="1.0" encoding="UTF-8"?>
<svg id="_レイヤー_2" data-name="レイヤー 2" xmlns="http://www.w3.org/2000/svg" viewBox="0 0 192.56 198.93">
  <defs>
    <style>
      .cls-1 {
        stroke-width: 9px;
      }

      .cls-1, .cls-2 {
        stroke: #000;
        stroke-miterlimit: 10;
      }

      .cls-2 {
        fill: none;
        stroke-width: 13px;
      }
    </style>
  </defs>
  <g id="_レイヤー_1-2" data-name="レイヤー 1">
    <path class="cls-1" d="m55.77,17.03l-11.47-11.47c-1.4-1.4-3.68-1.4-5.08,0h0S7.55,37.21,7.55,37.21c-.68.67-1.05,1.59-1.05,2.54v11.47c0,1.99,1.61,3.59,3.59,3.59h11.47c.95,0,1.87-.38,2.54-1.05l31.66-31.66c1.4-1.4,1.4-3.68,0-5.08,0,0,0,0,0,0ZM21.93,51.59c-.1.1-.23.15-.36.15h-11.47c-.28,0-.51-.23-.51-.51v-11.47c0-.14.06-.27.15-.36l22.95-22.96,12.2,12.2-22.95,22.95Zm31.66-31.66l-6.52,6.52-12.2-12.2,6.52-6.53c.2-.2.53-.2.73,0,0,0,0,0,0,0l11.47,11.47c.2.2.2.53,0,.73,0,0,0,0,0,0Z"/>
    <rect class="cls-2" x="40.47" y="52.22" width="145.6" height="140.2"/>
    <line class="cls-2" x1="6.5" y1="52.22" x2="6.5" y2="192.43"/>
  </g>
</svg>