<?xml version="1.0" encoding="utf-8"?>
<!-- Generator: Adobe Illustrator 28.0.0, SVG Export Plug-In . SVG Version: 6.00 Build 0)  -->
<svg version="1.1" id="_レイヤー_2" xmlns="http://www.w3.org/2000/svg" xmlns:xlink="http://www.w3.org/1999/xlink" x="0px"
	 y="0px" viewBox="0 0 243.3 204.3" style="enable-background:new 0 0 243.3 204.3;" xml:space="preserve">
<style type="text/css">
	.st0{stroke:#FFFFFF;stroke-width:9;stroke-miterlimit:10;}
	.st1{stroke:#FFFFFF;stroke-width:13;stroke-miterlimit:10;}
</style>
<g>
	<path class="st0" d="M81.5,20L70,8.5c-1.4-1.4-3.7-1.4-5.1,0c0,0,0,0,0,0L33.3,40.1c-0.7,0.7-1.1,1.6-1.1,2.5v11.5
		c0,2,1.6,3.6,3.6,3.6h11.5c1,0,1.9-0.4,2.5-1.1L81.5,25C82.9,23.6,82.9,21.4,81.5,20C81.5,20,81.5,20,81.5,20z M47.6,54.5
		c-0.1,0.1-0.2,0.2-0.4,0.2H35.8c-0.3,0-0.5-0.2-0.5-0.5V42.7c0-0.1,0.1-0.3,0.2-0.4l23-23l12.2,12.2L47.6,54.5z M79.3,22.9
		l-6.5,6.5L60.6,17.2l6.5-6.5c0.2-0.2,0.5-0.2,0.7,0c0,0,0,0,0,0l11.5,11.5C79.5,22.3,79.5,22.7,79.3,22.9
		C79.3,22.9,79.3,22.9,79.3,22.9z"/>
</g>
<rect x="66.2" y="55.2" class="st1" width="145.6" height="140.2"/>
<line class="st1" x1="32.2" y1="55.2" x2="32.2" y2="195.4"/>
</svg>
